<?xml version="1.0" encoding="UTF-8" standalone="no"?>
<svg
   data-name="Layer 1"
   viewBox="0 0 762.3399 181.10429"
   preserveAspectRatio="none"
   version="1.1"
   id="svg441"
   width="762.3399"
   height="181.10429"
   xmlns="http://www.w3.org/2000/svg"
   xmlns:svg="http://www.w3.org/2000/svg">
  <defs
     id="defs445">
    <clipPath
       clipPathUnits="userSpaceOnUse"
       id="clipPath1184">
      <rect
         style="fill:#ffffff;stroke-width:1.13148"
         id="rect1186"
         width="763.604"
         height="345.07721"
         x="-1.6040651"
         y="1.3750592" />
    </clipPath>
    <clipPath
       clipPathUnits="userSpaceOnUse"
       id="clipPath1184-3">
      <rect
         style="fill:#ffffff;stroke-width:1.13148"
         id="rect1186-5"
         width="763.604"
         height="345.07721"
         x="-1.6040651"
         y="1.3750592" />
    </clipPath>
  </defs>
  <g
     id="layer1"
     style="display:inline"
     transform="translate(0.33995543,58.439888)">
    <path
       d="M 985.66,93.306294 C 906.67,72.841447 823.78,32.560184 743.84,16.044866 661.58,-0.99116131 575.78,0.00113324 493.39,16.428029 435.55,27.9524 379.39,46.953367 321.39,57.554217 A 600.21,589.68823 0 0 1 0,28.974169 V 120 H 1200 V 96.22423 c -67.81,22.7147 -144.29,15.23811 -214.34,-2.917936 z"
       class="shape-fill"
       fill="#ffffff"
       fill-opacity="1"
       id="path439"
       style="display:inline;stroke-width:0.991196"
       clip-path="url(#clipPath1184)" />
    <path
       d="M 985.66,93.306294 C 906.67,72.841447 823.78,32.560184 743.84,16.044866 661.58,-0.99116131 575.78,0.00113324 493.39,16.428029 435.55,27.9524 379.39,46.953367 321.39,57.554217 A 600.21,589.68823 0 0 1 0,28.974169 V 120 H 1200 V 96.22423 c -67.81,22.7147 -144.29,15.23811 -214.34,-2.917936 z"
       class="shape-fill"
       fill="#ffffff"
       fill-opacity="1"
       id="path439-6"
       style="display:inline;opacity:1;fill:#041f3f;fill-opacity:1;stroke-width:0.991196"
       clip-path="url(#clipPath1184-3)"
       transform="matrix(1.0003866,0,0,1,-0.33995543,2.6644106)" />
    <rect
       style="fill:#ffffff;stroke-width:0.991196"
       id="rect551"
       width="4.779603"
       height="62.768837"
       x="618.71924"
       y="-58.439888" />
    <rect
       style="fill:#ffffff;stroke-width:0.991196"
       id="rect553"
       width="28.527981"
       height="3.9517994"
       x="607.03247"
       y="-42.095402" />
    <rect
       style="fill:#ffffff;stroke-width:0.91874"
       id="rect551-3"
       width="4.779603"
       height="53.927475"
       x="588.59412"
       y="-48.357803" />
    <rect
       style="fill:#ffffff;stroke-width:0.991196"
       id="rect553-6"
       width="28.527981"
       height="3.9517994"
       x="576.90735"
       y="-32.013313" />
    <rect
       style="fill:#ffffff;stroke-width:0.88715"
       id="rect551-7"
       width="4.779603"
       height="50.282753"
       x="647.4917"
       y="-44.344715" />
    <rect
       style="fill:#ffffff;stroke-width:0.991196"
       id="rect553-5"
       width="28.527981"
       height="3.9517994"
       x="635.80493"
       y="-28.000221" />
  </g>
</svg>
