<?xml version="1.0" encoding="UTF-8" standalone="no"?>
<svg
   data-name="Layer 1"
   viewBox="0 0 761.99994 178.43988"
   preserveAspectRatio="none"
   version="1.1"
   id="svg441"
   width="761.99994"
   height="178.43988"
   xmlns="http://www.w3.org/2000/svg"
   xmlns:svg="http://www.w3.org/2000/svg">
  <defs
     id="defs445">
    <clipPath
       clipPathUnits="userSpaceOnUse"
       id="clipPath1184">
      <rect
         style="fill:#ffffff;stroke-width:1.13148"
         id="rect1186"
         width="763.604"
         height="345.07721"
         x="-1.6040651"
         y="1.3750592"
         d="M -1.6040651,1.3750592 H 761.99994 V 346.45227 H -1.6040651 Z" />
    </clipPath>
    <clipPath
       clipPathUnits="userSpaceOnUse"
       id="clipPath1184-3">
      <rect
         style="fill:#ffffff;stroke-width:1.13148"
         id="rect1186-5"
         width="763.604"
         height="345.07721"
         x="-1.6040651"
         y="1.3750592" />
    </clipPath>
    <mask
       maskUnits="userSpaceOnUse"
       id="mask-powermask-path-effect2084">
      <path
         id="mask-powermask-path-effect2084_box"
         style="fill:#ffffff;fill-opacity:1"
         d="M -1,2.6825538 H 762.99994 V 121 H -1 Z" />
      <path
         d="m 985.66,93.306294 c 70.05,18.156046 146.53,25.632636 214.34,2.917936 V 120 H 0 V 28.974169 a 600.21,589.68823 0 0 0 321.39,28.580048 c 58,-10.60085 114.16,-29.601817 172,-41.126188 82.39,-16.42689576 168.19,-17.41919031 250.45,-0.383163 79.94,16.515318 162.83,56.796581 241.82,77.261428 z"
         class="shape-fill"
         fill="#ffffff"
         fill-opacity="1"
         id="path2082"
         style="display:inline;fill:#ff0000;fill-opacity:1;stroke-width:0.991196"
         clip-path="url(#clipPath1184-3)"
         transform="translate(0.01338904,3.6131751)" />
    </mask>
  </defs>
  <g
     id="layer1"
     style="display:inline"
     transform="translate(0,58.439888)">
    <path
       d="M 985.66,93.306294 C 906.67,72.841447 823.78,32.560184 743.84,16.044866 661.58,-0.99116131 575.78,0.00113324 493.39,16.428029 435.55,27.9524 379.39,46.953367 321.39,57.554217 A 600.21,589.68823 0 0 1 0,28.974169 V 120 H 1200 V 96.22423 c -67.81,22.7147 -144.29,15.23811 -214.34,-2.917936 z"
       class="shape-fill"
       fill="#ffffff"
       fill-opacity="1"
       id="path439"
       style="display:inline;fill:#ffffff;stroke-width:0.991196"
       clip-path="url(#clipPath1184)"
       mask="url(#mask-powermask-path-effect2084)" />
    <rect
       style="fill:#ffffff;stroke-width:0.991196"
       id="rect551"
       width="4.779603"
       height="62.768837"
       x="618.71924"
       y="-58.439888" />
    <rect
       style="fill:#ffffff;stroke-width:0.991196"
       id="rect553"
       width="28.527981"
       height="3.9517994"
       x="607.03247"
       y="-42.095402" />
    <rect
       style="fill:#ffffff;stroke-width:0.91874"
       id="rect551-3"
       width="4.779603"
       height="53.927475"
       x="588.59412"
       y="-48.357803" />
    <rect
       style="fill:#ffffff;stroke-width:0.991196"
       id="rect553-6"
       width="28.527981"
       height="3.9517994"
       x="576.90735"
       y="-32.013313" />
    <rect
       style="fill:#ffffff;stroke-width:0.88715"
       id="rect551-7"
       width="4.779603"
       height="50.282753"
       x="647.4917"
       y="-44.344715" />
    <rect
       style="fill:#ffffff;stroke-width:0.991196"
       id="rect553-5"
       width="28.527981"
       height="3.9517994"
       x="635.80493"
       y="-28.000221" />
  </g>
</svg>
